<?xml version="1.0" encoding="utf-8"?>
<!-- Generator: Adobe Illustrator 22.0.1, SVG Export Plug-In . SVG Version: 6.00 Build 0)  -->
<svg version="1.1" xmlns="http://www.w3.org/2000/svg" xmlns:xlink="http://www.w3.org/1999/xlink" x="0px" y="0px" width="40px"
	 height="40px" viewBox="0 0 40 40" style="enable-background:new 0 0 40 40;" xml:space="preserve">
<style type="text/css">
	.st0{opacity:0.5;}
	.st1{fill:none;stroke:#FFFFFF;stroke-width:1.3;stroke-linecap:round;stroke-linejoin:round;stroke-miterlimit:10;}
</style>
<g id="Layer_1">
	<circle class="st0" cx="20" cy="20" r="19.6"/>
</g>
<g id="Layer_2">
	<g>
		<path class="st1" d="M25.8,16.4v9.5c0,0.8-0.4,1.2-1.2,1.2h-9.3c-0.8,0-1.2-0.4-1.2-1.2V14.2c0-0.8,0.4-1.2,1.2-1.2h7.2"/>
		<polyline class="st1" points="22.5,13 22.7,13 25.8,16.3 25.8,16.4 		"/>
		<line class="st1" x1="22.9" y1="21.7" x2="17.3" y2="21.7"/>
		<line class="st1" x1="22.9" y1="24.1" x2="17.3" y2="24.1"/>
		<line class="st1" x1="22.9" y1="17.1" x2="17.3" y2="17.1"/>
		<line class="st1" x1="22.9" y1="19.4" x2="17.3" y2="19.4"/>
		<path class="st1" d="M25.8,16.4h-2.1c-0.8,0-1.2-0.4-1.2-1.2V13"/>
	</g>
</g>
</svg>
