<?xml version="1.0" encoding="utf-8"?>
<!-- Generator: Adobe Illustrator 22.0.1, SVG Export Plug-In . SVG Version: 6.00 Build 0)  -->
<svg version="1.1" xmlns="http://www.w3.org/2000/svg" xmlns:xlink="http://www.w3.org/1999/xlink" x="0px" y="0px" width="40px"
	 height="40px" viewBox="0 0 40 40" style="enable-background:new 0 0 40 40;" xml:space="preserve">
<style type="text/css">
	.st0{opacity:0.5;}
	.st1{fill:#FEFEFE;stroke:#FFFFFF;stroke-width:0.5;stroke-miterlimit:10;}
</style>
<g id="Layer_1">
	<circle class="st0" cx="20" cy="20" r="19.6"/>
</g>
<g id="Layer_2">
	<g>
		<path class="st1" d="M21.8,12.7c-1.3,0-2.6,0.3-3.7,1c-1,0.6-1.8,1.4-2.5,2.4h-2.8c-1.1,0-2,0.9-2,2v3.7c0,1.1,0.9,2,2,2h2.8
			c0.6,1,1.5,1.8,2.5,2.4c1.1,0.7,2.4,1,3.7,1c0.3,0,0.5-0.2,0.5-0.5V13.2C22.3,13,22.1,12.7,21.8,12.7L21.8,12.7z M15.4,22.9h-2.6
			c-0.6,0-1-0.4-1-1v-3.7c0-0.6,0.4-1,1-1h2.6V22.9z M21.2,26.2c-2-0.2-3.8-1.3-4.8-3v-6.5c1-1.7,2.8-2.8,4.8-3V26.2z M21.2,26.2
			 M25.1,20.3c0-0.3,0.2-0.5,0.5-0.5h3.2c0.3,0,0.5,0.2,0.5,0.5c0,0.3-0.2,0.5-0.5,0.5h-3.2C25.3,20.8,25.1,20.6,25.1,20.3
			L25.1,20.3z M25.1,20.3 M24.3,17.4c0-0.2,0.1-0.3,0.2-0.4l2.8-1.6c0.2-0.1,0.5-0.1,0.6,0.2c0.1,0.2,0.1,0.5-0.2,0.6L25,17.8
			c-0.2,0.1-0.5,0.1-0.6-0.2C24.3,17.5,24.3,17.5,24.3,17.4L24.3,17.4z M24.3,17.4 M24.3,23.3c0-0.1,0-0.2,0.1-0.2
			c0.1-0.2,0.4-0.3,0.6-0.2l2.8,1.6c0.2,0.1,0.3,0.4,0.2,0.6c-0.1,0.2-0.4,0.3-0.6,0.2l-2.8-1.6C24.4,23.6,24.3,23.5,24.3,23.3
			L24.3,23.3z M24.3,23.3"/>
	</g>
</g>
</svg>
