<?xml version="1.0" encoding="utf-8"?>
<!-- Generator: Adobe Illustrator 22.0.1, SVG Export Plug-In . SVG Version: 6.00 Build 0)  -->
<svg version="1.1" xmlns="http://www.w3.org/2000/svg" xmlns:xlink="http://www.w3.org/1999/xlink" x="0px" y="0px" width="40px"
	 height="40px" viewBox="0 0 40 40" style="enable-background:new 0 0 40 40;" xml:space="preserve">
<style type="text/css">
	.st0{opacity:0.5;}
	.st1{fill:none;stroke:#FFFFFF;stroke-width:1.3;stroke-linecap:round;stroke-linejoin:round;stroke-miterlimit:10;}
</style>
<g id="Layer_1">
	<circle class="st0" cx="20" cy="20" r="19.6"/>
</g>
<g id="Layer_2">
	<g>
		<path class="st1" d="M23.1,20.8c0-0.8-0.3-1.6-0.9-2.2c-0.6-0.6-1.3-0.9-2.2-0.9c-0.8,0-1.6,0.3-2.2,0.9c-0.6,0.6-0.9,1.3-0.9,2.2
			c0,0.8,0.3,1.6,0.9,2.2c0.6,0.6,1.3,0.9,2.2,0.9c0.8,0,1.6-0.3,2.2-0.9C22.8,22.4,23.1,21.7,23.1,20.8z"/>
		<g>
			<path class="st1" d="M16.4,15.4v-0.2c0-0.5,0.2-1,0.6-1.4c0.4-0.4,0.8-0.6,1.4-0.6h3.5c0.5,0,1,0.2,1.4,0.6
				c0.4,0.4,0.6,0.8,0.6,1.4v0.2v0H26c1.2,0,1.8,0.7,1.8,1.9v7.5c0,1.3-0.6,1.9-1.8,1.9H14.1c-1.3,0-1.9-0.6-1.9-1.9v-7.5
				c0-1.3,0.6-1.9,1.9-1.9h1.1"/>
			<polyline class="st1" points="15.3,15.4 16.4,15.4 16.4,15.4 			"/>
			<line class="st1" x1="15.3" y1="15.4" x2="16.4" y2="15.4"/>
		</g>
	</g>
</g>
</svg>
